<svg width="636" height="540" viewBox="0 0 636 540" fill="none" xmlns="http://www.w3.org/2000/svg">
<g clip-path="url(#clip0_73_357)">
<rect width="636" height="540"/>
<path fill-rule="evenodd" clip-rule="evenodd" d="M318 278C317.594 278 317.188 277.876 316.84 277.628C316.232 277.198 301.942 266.88 302 253.99C302 245.178 309.178 238 318 238C326.822 238 334 245.178 334 254C334.058 266.88 319.768 277.198 319.16 277.628C318.812 277.876 318.406 278 318 278ZM318 262C322.418 262 326 258.418 326 254C326 249.582 322.418 246 318 246C313.582 246 310 249.582 310 254C310 258.418 313.582 262 318 262Z" fill="#6366F1"/>
<path fill-rule="evenodd" clip-rule="evenodd" d="M142 462C141.594 462 141.188 461.876 140.84 461.628C140.232 461.198 125.942 450.88 126 437.99C126 429.178 133.178 422 142 422C150.822 422 158 429.178 158 438C158.058 450.88 143.768 461.198 143.16 461.628C142.812 461.876 142.406 462 142 462ZM142 446C146.418 446 150 442.418 150 438C150 433.582 146.418 430 142 430C137.582 430 134 433.582 134 438C134 442.418 137.582 446 142 446Z" fill="#6366F1"/>
</g>
<defs>
<clipPath id="clip0_73_357">
<rect width="636" height="540" rx="8" fill="white"/>
</clipPath>
</defs>
</svg>
